<?xml version="1.0" standalone="no"?>
<!DOCTYPE svg PUBLIC "-//W3C//DTD SVG 20010904//EN"
 "http://www.w3.org/TR/2001/REC-SVG-20010904/DTD/svg10.dtd">
<svg version="1.0" xmlns="http://www.w3.org/2000/svg"
 width="256.000000pt" height="256.000000pt" viewBox="0 0 256.000000 256.000000"
 preserveAspectRatio="xMidYMid meet">

<g transform="translate(0.000000,256.000000) scale(0.100000,-0.100000)"
fill="#000000" stroke="none">
<path d="M1760 2400 l0 -160 -160 0 -160 0 0 -400 0 -400 240 0 240 0 0 560 0
560 -80 0 -80 0 0 -160z m0 -560 l0 -240 -80 0 -80 0 0 240 0 240 80 0 80 0 0
-240z"/>
<path d="M160 1840 l0 -400 80 0 80 0 0 320 0 320 80 0 80 0 0 -320 0 -320 80
0 80 0 0 400 0 400 -240 0 -240 0 0 -400z"/>
<path d="M800 1840 l0 -400 240 0 240 0 0 400 0 400 -240 0 -240 0 0 -400z
m320 0 l0 -240 -80 0 -80 0 0 240 0 240 80 0 80 0 0 -240z"/>
<path d="M2080 1840 l0 -400 240 0 240 0 0 80 0 80 -160 0 -160 0 0 80 0 80
80 0 80 0 0 80 0 80 -80 0 -80 0 0 80 0 80 160 0 160 0 0 80 0 80 -240 0 -240
0 0 -400z"/>
<path d="M160 640 l0 -480 80 0 80 0 0 240 0 240 160 0 160 0 0 240 0 240
-240 0 -240 0 0 -480z m320 240 l0 -80 -80 0 -80 0 0 80 0 80 80 0 80 0 0 -80z"/>
<path d="M800 880 l0 -240 240 0 240 0 0 240 0 240 -240 0 -240 0 0 -240z
m320 0 l0 -80 -80 0 -80 0 0 80 0 80 80 0 80 0 0 -80z"/>
<path d="M1440 640 l0 -480 80 0 80 0 0 240 0 240 160 0 160 0 0 240 0 240
-240 0 -240 0 0 -480z m320 240 l0 -80 -80 0 -80 0 0 80 0 80 80 0 80 0 0 -80z"/>
</g>
</svg>
